<svg width="126" height="25" viewBox="0 0 126 25" fill="none" xmlns="http://www.w3.org/2000/svg">
<path d="M13.0039 0L15.8103 8.63729H24.8921L17.5448 13.9754L20.3512 22.6127L13.0039 17.2746L5.65659 22.6127L8.46302 13.9754L1.1157 8.63729H10.1975L13.0039 0Z" fill="#0082CA"/>
<path d="M38.0039 0L40.8103 8.63729H49.8921L42.5448 13.9754L45.3512 22.6127L38.0039 17.2746L30.6566 22.6127L33.463 13.9754L26.1157 8.63729H35.1975L38.0039 0Z" fill="#0082CA"/>
<path d="M63.0039 0L65.8103 8.63729H74.8921L67.5448 13.9754L70.3512 22.6127L63.0039 17.2746L55.6566 22.6127L58.463 13.9754L51.1157 8.63729H60.1975L63.0039 0Z" fill="#0082CA"/>
<mask id="mask0_84_576" style="mask-type:alpha" maskUnits="userSpaceOnUse" x="76" y="0" width="24" height="23">
<path d="M88.0039 0L90.8103 8.63729H99.8921L92.5448 13.9754L95.3512 22.6127L88.0039 17.2746L80.6566 22.6127L83.463 13.9754L76.1157 8.63729H85.1975L88.0039 0Z" fill="#DAD86D"/>
</mask>
<g mask="url(#mask0_84_576)">
<rect x="75.4688" y="-0.237793" width="12" height="25" fill="#0082CA"/>
<rect x="87.4688" y="-0.237793" width="13" height="25" fill="white"/>
</g>
<path d="M113.004 0L115.81 8.63729H124.892L117.545 13.9754L120.351 22.6127L113.004 17.2746L105.657 22.6127L108.463 13.9754L101.116 8.63729H110.197L113.004 0Z" fill="white"/>
</svg>
