<svg width="126" height="25" viewBox="0 0 126 25" fill="none" xmlns="http://www.w3.org/2000/svg">
<path d="M12.752 0L15.5584 8.63729H24.6402L17.2928 13.9754L20.0993 22.6127L12.752 17.2746L5.40464 22.6127L8.21106 13.9754L0.863747 8.63729H9.94553L12.752 0Z" fill="#0082CA"/>
<path d="M37.752 0L40.5584 8.63729H49.6402L42.2928 13.9754L45.0993 22.6127L37.752 17.2746L30.4046 22.6127L33.2111 13.9754L25.8637 8.63729H34.9455L37.752 0Z" fill="#0082CA"/>
<path d="M62.752 0L65.5584 8.63729H74.6402L67.2928 13.9754L70.0993 22.6127L62.752 17.2746L55.4046 22.6127L58.2111 13.9754L50.8637 8.63729H59.9455L62.752 0Z" fill="#0082CA"/>
<mask id="mask0_84_426" style="mask-type:alpha" maskUnits="userSpaceOnUse" x="75" y="0" width="25" height="23">
<path d="M87.75 0L90.5564 8.63729H99.6382L92.2909 13.9754L95.0973 22.6127L87.75 17.2746L80.4027 22.6127L83.2091 13.9754L75.8618 8.63729H84.9436L87.75 0Z" fill="#DAD86D"/>
</mask>
<g mask="url(#mask0_84_426)">
<rect x="74.8633" y="0.262329" width="19" height="25" fill="#0082CA"/>
<rect x="93.8633" y="0.262329" width="6" height="25" fill="white"/>
</g>
<path d="M112.75 0L115.556 8.63729H124.638L117.291 13.9754L120.097 22.6127L112.75 17.2746L105.403 22.6127L108.209 13.9754L100.862 8.63729H109.944L112.75 0Z" fill="white"/>
</svg>
