<svg width="126" height="26" viewBox="0 0 126 26" fill="none" xmlns="http://www.w3.org/2000/svg">
<path d="M13.0039 0.5L15.8103 9.13729H24.8921L17.5448 14.4754L20.3512 23.1127L13.0039 17.7746L5.65659 23.1127L8.46302 14.4754L1.1157 9.13729H10.1975L13.0039 0.5Z" fill="#0082CA"/>
<path d="M38.0039 0.5L40.8103 9.13729H49.8921L42.5448 14.4754L45.3512 23.1127L38.0039 17.7746L30.6566 23.1127L33.463 14.4754L26.1157 9.13729H35.1975L38.0039 0.5Z" fill="#0082CA"/>
<path d="M63.0039 0.5L65.8103 9.13729H74.8921L67.5448 14.4754L70.3512 23.1127L63.0039 17.7746L55.6566 23.1127L58.463 14.4754L51.1157 9.13729H60.1975L63.0039 0.5Z" fill="#0082CA"/>
<path d="M88.0039 0.5L90.8103 9.13729H99.8921L92.5448 14.4754L95.3512 23.1127L88.0039 17.7746L80.6566 23.1127L83.463 14.4754L76.1157 9.13729H85.1975L88.0039 0.5Z" fill="#0082CA"/>
<mask id="mask0_84_456" style="mask-type:alpha" maskUnits="userSpaceOnUse" x="101" y="0" width="24" height="24">
<path d="M113.004 0.5L115.81 9.13729H124.892L117.545 14.4754L120.351 23.1127L113.004 17.7746L105.657 23.1127L108.463 14.4754L101.116 9.13729H110.197L113.004 0.5Z" fill="#DAD86D"/>
</mask>
<g mask="url(#mask0_84_456)">
<rect x="100.504" y="0.5" width="18" height="25" fill="#0082CA"/>
<rect x="118.504" y="0.5" width="7" height="25" fill="white"/>
</g>
</svg>
