<svg width="96" height="76" viewBox="0 0 96 76" fill="none" xmlns="http://www.w3.org/2000/svg">
<path d="M67.7808 49.2913L73.9452 55.4557L83.1918 45.1817L81.6507 44.668L73.9452 52.8872L68.8082 48.2639L67.7808 49.2913Z" fill="#0082CA"/>
<path d="M13.8425 25.6612H22.5753L25.6575 23.0927V17.9557L22.5753 13.8461H13.8425M13.8425 25.6612H10.2466M13.8425 25.6612V13.8461M10.2466 13.8461H13.8425M13.3288 28.2297H10.2466M13.3288 28.2297V36.9625M13.3288 28.2297H22.5753M13.3288 36.9625H10.2466M13.3288 36.9625H19.4932M34.9041 13.8461H85.2466M34.3904 20.0105H84.2192M34.3904 26.1749H85.7603M34.3904 33.3666H84.7329M34.3904 37.9899H66.7534M60.589 50.8324L61.6164 55.4557L63.6712 58.0242M60.589 50.8324V46.7228L62.1301 42.0995L64.1849 38.5036L66.7534 37.4762L71.3767 35.9351H76.5137L80.6233 37.4762L84.2192 40.5584L86.274 44.668L86.7877 48.2639V52.8872L85.2466 56.4831L81.6507 60.5927L77.5411 63.1612L73.9452 63.6749L68.8082 62.1338L65.726 59.5653L63.6712 58.0242M60.589 50.8324V45.1817H10.2466M60.589 50.8324H10.2466M9.73288 58.0242H63.6712M1 0.489929V75.4899L95.0069 73.9488V0.489929H1ZM67.7808 49.2913L73.9452 55.4557L83.1918 45.1817L81.6507 44.668L73.9452 52.8872L68.8082 48.2639L67.7808 49.2913Z" stroke="#0082CA"/>
</svg>
