<svg width="87" height="76" viewBox="0 0 87 76" fill="none" xmlns="http://www.w3.org/2000/svg">
<path d="M58.75 3.48993L66.25 7.61493L72.25 12.8649L77.875 20.7399H82.375L77.875 30.4899L69.625 25.2399L72.25 23.3649L70.375 16.2399L67.375 10.9899L63.625 7.61493L58.75 3.48993Z" fill="#0082CA"/>
<path d="M24.25 67.8306L31.75 72.2649L26.875 67.8306L23.125 64.2024L20.125 58.5587L18.25 50.8993L20.875 48.8837L12.625 43.2399L8.125 53.7212H12.625L18.25 62.1868L24.25 67.8306Z" fill="#0082CA"/>
<path d="M55.75 66.4899H65.5V69.8649H55.75V66.4899Z" fill="#0082CA"/>
<path d="M46 66.4899H53.125V69.8649H46V66.4899Z" fill="#0082CA"/>
<path d="M15.625 24.8649H25.375V28.2399H15.625V24.8649Z" fill="#0082CA"/>
<path d="M5.875 24.8649H13V28.2399H5.875V24.8649Z" fill="#0082CA"/>
<path d="M45.625 11.3649H1V18.4899H45.625V11.3649Z" fill="#0082CA"/>
<path d="M85.75 52.9899H41.125V60.1149H85.75V52.9899Z" fill="#0082CA"/>
<path d="M1 11.3649V3.11493H45.625V11.3649M1 11.3649H45.625M1 11.3649V18.4899M45.625 11.3649V18.4899M45.625 18.4899V32.7399H1V18.4899M45.625 18.4899H1M41.125 52.9899V44.7399H85.75V52.9899M41.125 52.9899H85.75M41.125 52.9899V60.1149M85.75 52.9899V60.1149M85.75 60.1149V74.3649H41.125V60.1149M85.75 60.1149H41.125M38.125 2.36493C39.925 0.864929 43.375 0.489929 44.875 0.489929H51.625L58.75 3.48993M58.75 3.48993L66.25 7.61493L72.25 12.8649L77.875 20.7399H82.375L77.875 30.4899L69.625 25.2399L72.25 23.3649L70.375 16.2399L67.375 10.9899L63.625 7.61493L58.75 3.48993ZM52.375 73.4743C50.575 75.0868 47.125 75.4899 45.625 75.4899H38.875L31.75 72.2649M31.75 72.2649L24.25 67.8306L18.25 62.1868L12.625 53.7212H8.125L12.625 43.2399L20.875 48.8837L18.25 50.8993L20.125 58.5587L23.125 64.2024L26.875 67.8306L31.75 72.2649ZM5.875 24.8649H13V28.2399H5.875V24.8649ZM15.625 24.8649H25.375V28.2399H15.625V24.8649ZM46 66.4899H53.125V69.8649H46V66.4899ZM55.75 66.4899H65.5V69.8649H55.75V66.4899Z" stroke="#0082CA"/>
</svg>
