<svg width="45" height="38" viewBox="0 0 45 38" fill="none" xmlns="http://www.w3.org/2000/svg">
<path fill-rule="evenodd" clip-rule="evenodd" d="M12.75 37.25L15.75 35.75L17.25 33.75V30.75H27.25V32.75L28.25 34.25L29.75 35.75L31.75 36.75H36.25L37.75 35.75L39.25 34.25L40.25 32.25V30.75H44.75V25.75H42.25V16.75L33.25 7.75H28.25V2.75L26.25 0.75H3.25L0.25 3.25V27.75L1.75 30.75H5.25V33.75L6.25 35.75L8.25 37.25H12.75ZM12.75 33.75H9.75L7.75 32.25V29.25L9.75 27.25L12.75 27.3911L14.75 29.25V31.75L12.75 33.75ZM35.25 26.75H32.25L30.25 28.75V31.75L32.25 33.75H35.25L37.25 32.25V28.75L35.25 26.75ZM28.75 19.25V10.75H32.75L39.25 17.75V19.25H28.75Z" fill="white"/>
</svg>
