<svg width="37" height="36" viewBox="0 0 37 36" fill="none" xmlns="http://www.w3.org/2000/svg">
<path fill-rule="evenodd" clip-rule="evenodd" d="M15.25 11.75H23.75L27.25 14.75L29.75 17.75L30.75 22.25V28.25L28.75 31.25L26.25 33.75L22.75 35.75H14.75L11.25 33.75L8.25 30.25L6.75 26.75V18.75L10.25 14.75L15.25 11.75ZM17.75 16.75L16.25 20.25L11.25 20.75V22.25L14.75 24.75L13.75 30.25L16.25 29.75L19.25 27.75L23.25 29.75V24.75L26.25 21.75C25.9167 21.5833 25.15 21.15 24.75 20.75C24.35 20.35 22.25 20.25 21.25 20.25L19.75 16.75H17.75Z" fill="white"/>
<path d="M1.25 0.25H10.25L16.25 8.75L9.25 12.75L0.25 1.75L1.25 0.25Z" fill="white"/>
<path d="M21.25 9.25L28.75 12.75L36.75 2.25L35.75 0.25H27.25L21.25 9.25Z" fill="white"/>
</svg>
