<svg width="37" height="38" viewBox="0 0 37 38" fill="none" xmlns="http://www.w3.org/2000/svg">
<path d="M1.75 13L11.75 10L13.25 20L8.75 18.5L5.25 24V27L11.75 27.5V32H5.25L0.75 28.5V23L5.25 16L1.75 13Z" fill="#F9F9FA"/>
<path d="M11.25 6L14.25 9L16.75 6L17.25 5H20.25L23.25 10L19.25 13.5L29.75 17L31.25 5.5L27.25 8L21.25 1L19.25 0H16.25L11.25 6Z" fill="#F9F9FA"/>
<path d="M29.25 20.5L32.75 18L35.75 22L36.25 25.5L35.75 28.5L31.75 32H22.75L22.25 38L14.25 30L22.75 21.5V27L30.75 27.5L31.75 25.5V24L29.25 20.5Z" fill="#F9F9FA"/>
</svg>
