<svg width="44" height="38" viewBox="0 0 44 38" fill="none" xmlns="http://www.w3.org/2000/svg">
<path d="M0 8.95373H3.17136L8.48283 30.9467H31.7508V29.993H9.22206L8.38464 26.5255H33.3228L36 12.6604H5.03611L3.91059 8H0V8.95373Z" fill="#CFD6DB"/>
<path d="M15.2263 34.8923C15.2263 36.6086 13.8523 38 12.1574 38C10.4626 38 9.08859 36.6086 9.08859 34.8923C9.08859 33.176 10.4626 31.7846 12.1574 31.7846C13.8523 31.7846 15.2263 33.176 15.2263 34.8923Z" fill="#CFD6DB"/>
<path d="M28.6819 38C30.3768 38 31.7508 36.6086 31.7508 34.8923C31.7508 33.176 30.3768 31.7846 28.6819 31.7846C26.987 31.7846 25.6131 33.176 25.6131 34.8923C25.6131 36.6086 26.987 38 28.6819 38Z" fill="#CFD6DB"/>
<rect x="20" width="24" height="24" rx="12" fill="black"/>
<path d="M31.875 17.6392C31.1259 17.6392 30.4879 17.4354 29.9609 17.0277C29.4339 16.6167 29.0313 16.0218 28.7528 15.2429C28.4744 14.4607 28.3352 13.5161 28.3352 12.4091C28.3352 11.3087 28.4744 10.3691 28.7528 9.5902C29.0346 8.808 29.4389 8.21141 29.9659 7.80043C30.4962 7.38613 31.1326 7.17898 31.875 7.17898C32.6174 7.17898 33.2521 7.38613 33.7791 7.80043C34.3094 8.21141 34.7138 8.808 34.9922 9.5902C35.2739 10.3691 35.4148 11.3087 35.4148 12.4091C35.4148 13.5161 35.2756 14.4607 34.9972 15.2429C34.7188 16.0218 34.3161 16.6167 33.7891 17.0277C33.2621 17.4354 32.6241 17.6392 31.875 17.6392ZM31.875 16.5455C32.6174 16.5455 33.1941 16.1875 33.6051 15.4716C34.0161 14.7557 34.2216 13.7348 34.2216 12.4091C34.2216 11.5275 34.1271 10.7768 33.9382 10.157C33.7526 9.53717 33.4841 9.06487 33.1328 8.74006C32.7848 8.41525 32.3655 8.25284 31.875 8.25284C31.1392 8.25284 30.5642 8.61577 30.1499 9.34162C29.7356 10.0642 29.5284 11.0866 29.5284 12.4091C29.5284 13.2907 29.6212 14.0398 29.8068 14.6562C29.9924 15.2727 30.2592 15.7417 30.6072 16.0632C30.9586 16.3847 31.3812 16.5455 31.875 16.5455Z" fill="white"/>
</svg>
