<svg width="33" height="40" viewBox="0 0 33 40" fill="none" xmlns="http://www.w3.org/2000/svg">
<path d="M0 10.528V39.5L10.4673 31.0888H11.4019L21.4953 39.5V10.528L20.2804 9.5H1.30841L0 10.528Z" fill="#CFD6DB"/>
<rect x="9" y="0.5" width="24" height="24" rx="12" fill="black"/>
<path d="M20.875 18.1392C20.1259 18.1392 19.4879 17.9354 18.9609 17.5277C18.4339 17.1167 18.0313 16.5218 17.7528 15.7429C17.4744 14.9607 17.3352 14.0161 17.3352 12.9091C17.3352 11.8087 17.4744 10.8691 17.7528 10.0902C18.0346 9.308 18.4389 8.71141 18.9659 8.30043C19.4962 7.88613 20.1326 7.67898 20.875 7.67898C21.6174 7.67898 22.2521 7.88613 22.7791 8.30043C23.3094 8.71141 23.7138 9.308 23.9922 10.0902C24.2739 10.8691 24.4148 11.8087 24.4148 12.9091C24.4148 14.0161 24.2756 14.9607 23.9972 15.7429C23.7188 16.5218 23.3161 17.1167 22.7891 17.5277C22.2621 17.9354 21.6241 18.1392 20.875 18.1392ZM20.875 17.0455C21.6174 17.0455 22.1941 16.6875 22.6051 15.9716C23.0161 15.2557 23.2216 14.2348 23.2216 12.9091C23.2216 12.0275 23.1271 11.2768 22.9382 10.657C22.7526 10.0372 22.4841 9.56487 22.1328 9.24006C21.7848 8.91525 21.3655 8.75284 20.875 8.75284C20.1392 8.75284 19.5642 9.11577 19.1499 9.84162C18.7356 10.5642 18.5284 11.5866 18.5284 12.9091C18.5284 13.7907 18.6212 14.5398 18.8068 15.1562C18.9924 15.7727 19.2592 16.2417 19.6072 16.5632C19.9586 16.8847 20.3812 17.0455 20.875 17.0455Z" fill="white"/>
</svg>
