<svg width="139" height="73" viewBox="0 0 139 73" fill="none" xmlns="http://www.w3.org/2000/svg">
<path d="M62.3756 71.125L60.8323 68.8333L58.363 66.0834L55.585 62.875L52.0353 59.5139L48.177 55.5417L42.9297 51.264L35.6761 44.5418L31.8178 39.6529L29.1941 34.3057L27.6508 29.2641L27.3421 25.2918L27.6508 20.8613L29.1941 16.1252L31.5091 12.7641L34.4414 9.86135L37.6824 8.02802L41.695 6.34747L45.0904 5.73636H48.177L51.5723 6.34747L53.8873 6.8058L55.8936 8.02802L58.2086 9.25024L60.3693 11.2363L62.9929 14.4447L65.3079 12.0002L67.3143 9.86135L70.7096 7.87524L75.3395 5.88914H82.4388L86.6058 6.8058L89.6925 8.48635L92.7791 10.778L95.0941 13.3752L97.1004 16.5835L98.4894 20.0974L98.9524 23.9169V28.5002L97.8721 32.4724L96.4831 35.8335L94.6311 39.3473L91.8531 42.7084L88.1491 46.5279L84.5995 49.7362L80.1239 53.7084L75.4939 57.9862L69.9379 63.6389L67.1599 67L64.5363 70.6667L63.1473 72.5L62.3756 71.125Z" fill="white"/>
<path d="M7.81203 27.3364L5.20802 31.9182V41.7364L9.11404 45.6636L12.3691 48.2818L18.2281 50.9H26.0401L35.1542 50.2455H42.3152L48.8252 48.9364L60.5433 44.3545L71.6103 40.4273L79.4223 37.1545L86.5834 35.1909C87.2344 34.7545 88.6666 33.7509 89.1874 33.2273C89.8384 32.5727 91.7914 29.3 93.0934 27.9909C94.135 26.9436 95.6974 24.5 96.3484 23.4091L97.6504 19.4818L98.9524 12.9364L97.6504 7.7L95.6974 5.08182L92.4424 2.46364L91.1404 0.5L97.6504 2.46364C98.9524 2.9 101.687 4.03455 102.207 5.08182C102.858 6.39091 105.462 9.66364 106.113 9.66364C106.634 9.66364 107.198 12.7182 107.415 14.2455V21.4455L106.113 26.0273L104.16 29.9545L100.905 35.1909L93.0934 41.7364L89.1874 45.6636L80.0733 52.2091L71.6103 56.1364L57.2882 62.6818L47.5232 65.3H27.9931L12.3691 64.6455L24.7381 62.6818L37.1072 59.4091L43.6172 56.1364L33.8521 57.4455L24.7381 59.4091L11.067 56.1364L1.95301 48.9364L0 41.7364L1.95301 34.5364L7.81203 27.3364Z" fill="black"/>
<path d="M16.5338 45.5857C13.2843 45.5857 10.6428 42.9531 10.6444 39.6859C10.6471 34.0962 10.7159 26.4857 11.067 26.0273C11.515 25.4423 14.6385 24.7249 15.8576 24.4637C16.182 24.3942 16.5008 24.3016 16.8212 24.215C17.3079 24.0834 17.61 24.0712 17.8144 24.1309C18.6498 24.3752 19.2464 24.9143 20.0079 25.3372C20.0694 25.3714 20.1242 25.4086 20.1731 25.4484C21.086 26.1911 21.8589 27.4159 21.6224 28.5725C21.6014 28.6754 21.5751 28.7803 21.5471 28.8862C21.3588 29.5958 21.971 30.5397 21.701 31.2221C21.3534 32.1004 21.8664 33.3081 20.9473 33.5069C20.6299 33.5756 20.1749 33.5044 19.9841 33.6684C19.6114 33.993 19.2085 34.2382 18.7752 34.4042C18.7251 34.4234 18.6912 34.4713 18.6912 34.5253C18.6912 34.5915 18.7417 34.647 18.8076 34.6446C19.1516 34.6326 19.591 34.486 19.8919 34.7285C20.225 34.9968 20.4372 35.4097 20.7762 35.6706C21.0598 35.8889 21.1609 36.0943 21.2251 36.3225C21.3703 36.8387 21.7547 37.2264 22.0089 37.6979C22.2405 38.1275 22.1556 38.5749 22.0642 39.0672C21.9564 39.6478 22.0561 40.2368 22.0978 40.8259C22.1304 41.285 22.0685 41.5864 21.9633 41.8317C21.6669 42.523 21.4947 43.6499 20.9907 44.2066C20.1855 45.0959 19.5184 45.9799 18.3229 45.9425C17.7924 45.9259 17.2211 45.5857 16.5338 45.5857ZM12.6314 39.6167C12.6314 41.6542 14.2741 43.3059 16.3006 43.3059H16.5338C17.8187 43.3059 18.7308 42.9812 19.2702 42.3318C19.8148 41.6754 20.0872 40.8809 20.0872 39.9483C20.0872 39.2298 19.947 38.5666 19.6668 37.9586C19.3865 37.3438 18.9873 36.8533 18.4691 36.4871C17.9509 36.114 17.3375 35.9275 16.6289 35.9275H16.3006C14.2741 35.9275 12.6314 37.5792 12.6314 39.6167ZM12.6314 30.1658C12.6314 32.1117 14.2003 33.6891 16.1357 33.6891H16.28C16.8722 33.6891 17.4063 33.5372 17.8822 33.2332C18.3633 32.9292 18.7441 32.5009 19.0243 31.9482C19.3099 31.3955 19.4526 30.7461 19.4526 30C19.4526 29.0673 19.2041 28.2763 18.7071 27.6269C18.21 26.9706 17.4221 26.6424 16.3434 26.6424H16.1357C14.2003 26.6424 12.6314 28.2199 12.6314 30.1658Z" fill="#0082CA"/>
<path d="M30.0454 45.9173C28.8715 45.9173 27.8589 45.5788 27.0076 44.9017C26.1615 44.2178 25.5085 43.2644 25.0485 42.0416C24.5937 40.8119 24.3663 39.3818 24.3663 37.7514C24.3663 36.1209 24.5937 34.684 25.0485 33.4404C25.5085 32.19 26.1483 31.2159 26.9679 30.5181C27.7928 29.8134 28.7552 29.4611 29.8551 29.4611C30.4896 29.4611 31.1162 29.5993 31.7349 29.8756C32.3536 30.152 32.9167 30.601 33.4243 31.2228C33.932 31.8376 34.3365 32.6529 34.6379 33.6684C34.9393 34.684 35.09 35.9344 35.09 37.4198C35.09 37.9921 34.6285 38.456 34.0593 38.456H26.7501C26.1695 38.456 25.6989 37.9828 25.6989 37.399C25.6989 36.8153 26.1695 36.342 26.7501 36.342H30.7457C32.0936 36.342 33.2663 35.1995 32.7739 33.9378C32.5043 33.2332 32.1183 32.677 31.6159 32.2694C31.1189 31.8618 30.5319 31.658 29.8551 31.658C29.1095 31.658 28.4644 31.8998 27.9197 32.3834C27.3804 32.8601 26.9653 33.4819 26.6745 34.2487C26.3836 35.0156 26.2382 35.8377 26.2382 36.7151V38.1244C26.2382 39.3265 26.3968 40.3455 26.7141 41.1815C27.0367 42.0105 27.4835 42.6426 28.0546 43.0779C28.6257 43.5062 29.2893 43.7204 30.0454 43.7204C30.5372 43.7204 30.9814 43.6306 31.378 43.4509C31.7798 43.2644 32.1262 42.9881 32.417 42.6219C32.5164 42.4945 32.608 42.3565 32.6919 42.2081C32.9729 41.7114 33.5446 41.3996 34.0786 41.5954C34.5466 41.767 34.8214 42.2684 34.6397 42.7348C34.4587 43.1991 34.2254 43.6243 33.9399 44.0105C33.4904 44.6116 32.9352 45.0814 32.2742 45.4199C31.6133 45.7515 30.8703 45.9173 30.0454 45.9173Z" fill="#0082CA"/>
<path d="M41.5226 45.9587C40.7506 45.9587 40.05 45.7688 39.4207 45.3888C38.7915 45.0019 38.2918 44.4458 37.9216 43.7204C37.5515 42.9881 37.3664 42.1038 37.3664 41.0675C37.3664 40.1556 37.5039 39.4163 37.7788 38.8498C38.0538 38.2764 38.4213 37.8274 38.8814 37.5027C39.3414 37.178 39.849 36.9362 40.4042 36.7773C40.9648 36.6115 41.5279 36.4802 42.0937 36.3835C42.834 36.2591 43.4342 36.1659 43.8942 36.1037C44.3595 36.0346 44.6979 35.9206 44.9095 35.7617C45.1263 35.6028 45.2347 35.3265 45.2347 34.9327V34.8498C45.2347 33.8273 45.0205 33.0328 44.5922 32.4663C44.1692 31.8998 43.5267 31.6166 42.6648 31.6166C41.7711 31.6166 41.0705 31.8722 40.5629 32.3834C40.3448 32.603 40.1546 32.829 39.9922 33.0613C39.6585 33.5385 39.0381 33.8089 38.5118 33.5634C38.0578 33.3515 37.8253 32.8269 38.0339 32.3694C38.2995 31.7867 38.6164 31.3078 38.9845 30.9326C39.5185 30.3868 40.1002 30.0069 40.7294 29.7927C41.364 29.5716 41.9879 29.4611 42.6013 29.4611C42.9926 29.4611 43.4421 29.5233 43.9497 29.6476C44.4626 29.7651 44.957 30.0103 45.4329 30.3834C45.9141 30.7565 46.3134 31.3195 46.6306 32.0725C46.9479 32.8256 47.1065 33.8342 47.1065 35.0985V44.6446C47.1065 45.1644 46.6875 45.5857 46.1706 45.5857C45.6537 45.5857 45.2347 45.1644 45.2347 44.6446V43.4866C45.2347 43.4555 45.2095 43.4302 45.1786 43.4302C45.1551 43.4302 45.1341 43.4449 45.1257 43.467C44.9975 43.8018 44.7906 44.1592 44.5049 44.539C44.2088 44.9328 43.8149 45.2679 43.3231 45.5442C42.8313 45.8206 42.2312 45.9587 41.5226 45.9587ZM41.8082 43.7618C42.5485 43.7618 43.1724 43.5718 43.68 43.1919C44.193 42.8119 44.579 42.3214 44.8381 41.7203C45.1025 41.1193 45.2347 40.4872 45.2347 39.8239V38.2226C45.2347 38.0362 44.8844 37.861 44.7112 37.9275C44.4468 38.0243 44.1401 38.1106 43.7911 38.1866C43.4474 38.2557 43.1116 38.3179 42.7838 38.3731C42.4612 38.4215 42.1995 38.463 41.9985 38.4975C41.512 38.5804 41.0573 38.7151 40.6343 38.9016C40.2165 39.0813 39.8781 39.3542 39.619 39.7203C39.3652 40.0796 39.2383 40.5701 39.2383 41.1918C39.2383 42.0416 39.4789 42.6841 39.9601 43.1193C40.4465 43.5477 41.0626 43.7618 41.8082 43.7618Z" fill="#0082CA"/>
<path d="M58.201 39.0778V30.6094C58.201 30.0897 58.6201 29.6684 59.137 29.6684C59.6539 29.6684 60.0729 30.0897 60.0729 30.6094V44.6446C60.0729 45.1644 59.6539 45.5857 59.137 45.5857C58.6201 45.5857 58.201 45.1644 58.201 44.6446V42.9661C58.201 42.9248 58.1677 42.8913 58.1266 42.8913C58.0951 42.8913 58.0671 42.9113 58.0563 42.9411C57.7702 43.7279 57.332 44.3987 56.7416 44.9535C56.1388 45.5131 55.3773 45.7929 54.4573 45.7929C53.6958 45.7929 53.019 45.5753 52.4267 45.1401C51.8345 44.6979 51.3692 44.0347 51.0307 43.1504C50.6923 42.2592 50.5231 41.1366 50.5231 39.7825V30.6094C50.5231 30.0897 50.9422 29.6684 51.4591 29.6684C51.976 29.6684 52.395 30.0897 52.395 30.6094V39.6167C52.395 40.7773 52.6435 41.7031 53.1406 42.3939C53.6429 43.0848 54.2828 43.4302 55.0601 43.4302C55.5254 43.4302 55.9986 43.2748 56.4798 42.9639C56.9663 42.653 57.3735 42.1763 57.7013 41.5338C58.0345 40.8913 58.201 40.0726 58.201 39.0778Z" fill="#0082CA"/>
<path d="M67.7691 29.6684C68.3383 29.6684 68.7998 30.1323 68.7998 30.7046C68.7998 31.277 68.3383 31.7409 67.7691 31.7409H63.5168C62.9476 31.7409 62.4861 31.277 62.4861 30.7046C62.4861 30.1323 62.9476 29.6684 63.5168 29.6684H67.7691ZM63.1532 25.4551C63.1495 25.404 63.1193 25.3587 63.0738 25.3358C62.9187 25.2578 63.0068 25.0215 63.1747 25.0653L65.8707 25.7693C66.0636 25.8197 66.1982 25.9947 66.1982 26.195V41.026C66.1982 41.7169 66.2748 42.235 66.4282 42.5805C66.5868 42.919 66.7878 43.147 67.031 43.2644C67.2795 43.3749 67.5413 43.4302 67.8162 43.4302C68.0225 43.4302 68.1917 43.4164 68.3239 43.3888C68.4947 43.3441 68.6671 43.4557 68.6974 43.6306L68.9251 44.9445C68.9824 45.2751 68.8125 45.6012 68.4904 45.6893C68.263 45.7584 67.9749 45.7929 67.6259 45.7929C67.0971 45.7929 66.5789 45.6444 66.0713 45.3473C65.5689 45.0503 65.1512 44.5978 64.818 43.9898C64.4902 43.3818 64.3263 42.615 64.3263 41.6893L63.1532 25.4551Z" fill="#0082CA"/>
<path d="M72.8211 51.5547C72.5039 51.5547 72.1813 51.7322 71.9328 51.6631C71.8635 51.6458 71.8079 51.6297 71.7635 51.6155C71.6588 51.582 71.5674 51.52 71.4817 51.4508L71.2662 51.2767C71.1713 51.2 71.0897 51.108 71.0248 51.0045C70.9813 50.935 70.9456 50.8609 70.9184 50.7836L70.8034 50.4563C70.7105 50.1919 70.6441 49.919 70.6052 49.6414L70.5619 49.3324C70.5565 49.2941 70.5544 49.2554 70.5554 49.2168L70.6107 47.1365C70.6208 46.7535 71.155 46.6766 71.2717 47.0414C71.3899 47.4112 72.6464 48.7574 72.8814 49.0657C72.9799 49.195 73.0692 49.2831 73.1384 49.2748C73.4874 49.2334 73.7967 49.0296 74.0664 48.6634C74.3414 48.3042 74.5926 47.7204 74.8199 46.9121C75.0481 46.099 75.0478 45.2382 74.8189 44.4253L71.0136 30.9108C70.8381 30.2875 71.3038 29.6684 71.948 29.6684C72.3881 29.6684 72.7731 29.9658 72.8864 30.3933L76.0409 42.2908C76.0506 42.3272 76.0833 42.3525 76.1207 42.3525C76.1582 42.3525 76.1909 42.3272 76.2005 42.2908L79.3552 30.3924C79.4685 29.9655 79.853 29.6684 80.2925 29.6684C80.9368 29.6684 81.402 30.2881 81.2254 30.911L76.4063 47.907C76.1736 48.7291 75.8854 49.4096 75.5417 49.9484C75.198 50.4942 74.7988 50.8984 74.344 51.1609C73.8946 51.4234 73.3869 51.5547 72.8211 51.5547Z" fill="#0082CA"/>
<path d="M95.6825 45.2193C92.9275 45.4173 90.5842 43.2235 90.5842 40.4466V25.3515C90.5842 24.8053 91.0245 24.3626 91.5677 24.3626C92.1109 24.3626 92.5512 24.8053 92.5512 25.3515V39.4416C92.5512 41.3984 94.7866 42.5022 96.3267 41.3058L96.5761 41.1121C98.0145 39.9948 100.102 41.0256 100.102 42.8532C100.102 44.0075 99.215 44.9655 98.0699 45.0478L95.6825 45.2193Z" fill="#0082CA"/>
<path d="M106.479 45.9587C105.707 45.9587 105.007 45.7688 104.377 45.3888C103.748 45.0019 103.248 44.4458 102.878 43.7204C102.508 42.9881 102.323 42.1038 102.323 41.0675C102.323 40.1556 102.461 39.4163 102.736 38.8498C103.011 38.2764 103.378 37.8274 103.838 37.5027C104.298 37.178 104.806 36.9362 105.361 36.7773C105.921 36.6115 106.485 36.4802 107.05 36.3835C107.791 36.2591 108.391 36.1659 108.851 36.1037C109.316 36.0346 109.655 35.9206 109.866 35.7617C110.083 35.6028 110.191 35.3265 110.191 34.9327V34.8498C110.191 33.8273 109.977 33.0328 109.549 32.4663C109.126 31.8998 108.483 31.6166 107.621 31.6166C106.728 31.6166 106.027 31.8722 105.52 32.3834C105.302 32.603 105.111 32.829 104.949 33.0613C104.615 33.5385 103.995 33.8089 103.469 33.5634C103.015 33.3515 102.782 32.8269 102.991 32.3694C103.256 31.7867 103.573 31.3078 103.941 30.9326C104.475 30.3868 105.057 30.0069 105.686 29.7927C106.321 29.5716 106.945 29.4611 107.558 29.4611C107.949 29.4611 108.399 29.5233 108.906 29.6476C109.419 29.7651 109.914 30.0103 110.39 30.3834C110.871 30.7565 111.27 31.3195 111.587 32.0725C111.905 32.8256 112.063 33.8342 112.063 35.0985V44.6446C112.063 45.1644 111.644 45.5857 111.127 45.5857C110.61 45.5857 110.191 45.1644 110.191 44.6446V43.4866C110.191 43.4555 110.166 43.4302 110.135 43.4302C110.112 43.4302 110.091 43.4449 110.082 43.467C109.954 43.8018 109.747 44.1592 109.462 44.539C109.166 44.9328 108.772 45.2679 108.28 45.5442C107.788 45.8206 107.188 45.9587 106.479 45.9587ZM106.765 43.7618C107.505 43.7618 108.129 43.5718 108.637 43.1919C109.15 42.8119 109.536 42.3214 109.795 41.7203C110.059 41.1193 110.191 40.4872 110.191 39.8239V38.2226C110.191 38.0362 109.841 37.861 109.668 37.9275C109.403 38.0243 109.097 38.1106 108.748 38.1866C108.404 38.2557 108.068 38.3179 107.74 38.3731C107.418 38.4215 107.156 38.463 106.955 38.4975C106.469 38.5804 106.014 38.7151 105.591 38.9016C105.173 39.0813 104.835 39.3542 104.576 39.7203C104.322 40.0796 104.195 40.5701 104.195 41.1918C104.195 42.0416 104.436 42.6841 104.917 43.1193C105.403 43.5477 106.019 43.7618 106.765 43.7618Z" fill="#0082CA"/>
<path d="M120.08 45.9173C119.065 45.9173 118.169 45.5822 117.391 44.9121C116.614 44.2351 116.006 43.2817 115.567 42.052C115.128 40.8153 114.909 39.3542 114.909 37.6685C114.909 35.9966 115.128 34.5458 115.567 33.3161C116.006 32.0864 116.617 31.1364 117.399 30.4663C118.182 29.7962 119.086 29.4611 120.112 29.4611C120.905 29.4611 121.532 29.6338 121.992 29.9792C122.457 30.3178 122.811 30.7046 123.055 31.1399C123.287 31.5406 123.471 31.8748 123.606 32.1425C123.623 32.1758 123.657 32.1969 123.694 32.1969C123.748 32.1969 123.792 32.1528 123.792 32.0983V25.3036C123.792 24.7839 124.211 24.3626 124.728 24.3626C125.245 24.3626 125.664 24.7839 125.664 25.3036V44.6765C125.664 45.1786 125.259 45.5857 124.76 45.5857C124.261 45.5857 123.856 45.1786 123.856 44.6765V43.2769C123.856 43.2013 123.795 43.14 123.72 43.14C123.667 43.14 123.619 43.1704 123.596 43.2178C123.461 43.4948 123.278 43.835 123.047 44.2385C122.793 44.6737 122.431 45.0641 121.96 45.4095C121.489 45.748 120.863 45.9173 120.08 45.9173ZM120.334 43.7204C121.085 43.7204 121.719 43.4648 122.238 42.9535C122.756 42.4354 123.15 41.7203 123.419 40.8084C123.689 39.8896 123.824 38.8291 123.824 37.627C123.824 36.4387 123.692 35.399 123.427 34.5078C123.163 33.6097 122.772 32.9119 122.253 32.4145C121.735 31.9102 121.095 31.658 120.334 31.658C119.541 31.658 118.88 31.924 118.351 32.456C117.828 32.981 117.434 33.696 117.169 34.6011C116.91 35.4992 116.781 36.5078 116.781 37.627C116.781 38.76 116.913 39.7894 117.177 40.7151C117.447 41.634 117.843 42.3663 118.367 42.9121C118.896 43.4509 119.551 43.7204 120.334 43.7204Z" fill="#0082CA"/>
<path d="M130.558 51.5547C130.241 51.5547 129.958 51.5201 129.709 51.451C129.372 51.3666 129.173 51.0622 129.138 50.7144L129.006 49.4116C128.722 46.6044 129.409 46.4514 130.656 48.9795C130.751 49.1716 130.826 49.2807 130.875 49.2748C131.224 49.2334 131.534 49.0296 131.803 48.6634C132.078 48.3042 132.329 47.7204 132.557 46.9121C132.785 46.099 132.785 45.2382 132.556 44.4253L128.75 30.9108C128.575 30.2875 129.041 29.6684 129.685 29.6684C130.125 29.6684 130.51 29.9658 130.623 30.3933L133.778 42.2908C133.787 42.3272 133.82 42.3525 133.858 42.3525C133.895 42.3525 133.928 42.3272 133.937 42.2908L137.092 30.3924C137.205 29.9655 137.59 29.6684 138.029 29.6684C138.674 29.6684 139.139 30.2881 138.962 30.911L134.143 47.907C133.91 48.7291 133.622 49.4096 133.279 49.9484C132.935 50.4942 132.536 50.8984 132.081 51.1609C131.631 51.4234 131.124 51.5547 130.558 51.5547Z" fill="#0082CA"/>
</svg>
