<svg width="126" height="25" viewBox="0 0 126 25" fill="none" xmlns="http://www.w3.org/2000/svg">
<path d="M12.7441 0L15.5506 8.63729H24.6323L17.285 13.9754L20.0915 22.6127L12.7441 17.2746L5.39682 22.6127L8.20325 13.9754L0.855934 8.63729H9.93772L12.7441 0Z" fill="#0082CA"/>
<path d="M37.7441 0L40.5506 8.63729H49.6323L42.285 13.9754L45.0915 22.6127L37.7441 17.2746L30.3968 22.6127L33.2032 13.9754L25.8559 8.63729H34.9377L37.7441 0Z" fill="#0082CA"/>
<path d="M62.7441 0L65.5506 8.63729H74.6323L67.285 13.9754L70.0915 22.6127L62.7441 17.2746L55.3968 22.6127L58.2032 13.9754L50.8559 8.63729H59.9377L62.7441 0Z" fill="#0082CA"/>
<path d="M87.7441 0L90.5506 8.63729H99.6323L92.285 13.9754L95.0915 22.6127L87.7441 17.2746L80.3968 22.6127L83.2032 13.9754L75.8559 8.63729H84.9377L87.7441 0Z" fill="#0082CA"/>
<mask id="mask0_30_495" style="mask-type:alpha" maskUnits="userSpaceOnUse" x="100" y="0" width="25" height="23">
<path d="M112.744 0L115.551 8.63729H124.632L117.285 13.9754L120.091 22.6127L112.744 17.2746L105.397 22.6127L108.203 13.9754L100.856 8.63729H109.938L112.744 0Z" fill="#DAD86D"/>
</mask>
<g mask="url(#mask0_30_495)">
<rect x="100.244" width="18" height="25" fill="#0082CA"/>
<rect x="118.244" width="7" height="25" fill="white"/>
</g>
</svg>
