<svg width="125" height="26" viewBox="0 0 125 26" fill="none" xmlns="http://www.w3.org/2000/svg">
<path d="M12.5 0.5L15.3064 9.13729H24.3882L17.0409 14.4754L19.8473 23.1127L12.5 17.7746L5.15268 23.1127L7.95911 14.4754L0.611794 9.13729H9.69357L12.5 0.5Z" fill="#0082CA"/>
<path d="M37.5 0.5L40.3064 9.13729H49.3882L42.0409 14.4754L44.8473 23.1127L37.5 17.7746L30.1527 23.1127L32.9591 14.4754L25.6118 9.13729H34.6936L37.5 0.5Z" fill="#0082CA"/>
<path d="M62.5 0.5L65.3064 9.13729H74.3882L67.0409 14.4754L69.8473 23.1127L62.5 17.7746L55.1527 23.1127L57.9591 14.4754L50.6118 9.13729H59.6936L62.5 0.5Z" fill="#0082CA"/>
<path d="M87.5 0.5L90.3064 9.13729H99.3882L92.0409 14.4754L94.8473 23.1127L87.5 17.7746L80.1527 23.1127L82.9591 14.4754L75.6118 9.13729H84.6936L87.5 0.5Z" fill="#0082CA"/>
<mask id="mask0_30_434" style="mask-type:alpha" maskUnits="userSpaceOnUse" x="100" y="0" width="25" height="24">
<path d="M112.5 0.5L115.306 9.13729H124.388L117.041 14.4754L119.847 23.1127L112.5 17.7746L105.153 23.1127L107.959 14.4754L100.612 9.13729H109.694L112.5 0.5Z" fill="#DAD86D"/>
</mask>
<g mask="url(#mask0_30_434)">
<rect x="100" y="0.822266" width="7" height="25" fill="#0082CA"/>
<rect x="107" y="0.822266" width="18" height="25" fill="white"/>
</g>
</svg>
