<svg width="126" height="25" viewBox="0 0 126 25" fill="none" xmlns="http://www.w3.org/2000/svg">
<path d="M12.5918 0L15.3982 8.63729H24.48L17.1327 13.9754L19.9391 22.6127L12.5918 17.2746L5.24448 22.6127L8.05091 13.9754L0.70359 8.63729H9.78537L12.5918 0Z" fill="#0082CA"/>
<path d="M37.5918 0L40.3982 8.63729H49.48L42.1327 13.9754L44.9391 22.6127L37.5918 17.2746L30.2445 22.6127L33.0509 13.9754L25.7036 8.63729H34.7854L37.5918 0Z" fill="#0082CA"/>
<path d="M62.5918 0L65.3982 8.63729H74.48L67.1327 13.9754L69.9391 22.6127L62.5918 17.2746L55.2445 22.6127L58.0509 13.9754L50.7036 8.63729H59.7854L62.5918 0Z" fill="#0082CA"/>
<mask id="mask0_30_366" style="mask-type:alpha" maskUnits="userSpaceOnUse" x="75" y="0" width="25" height="23">
<path d="M87.5918 0L90.3982 8.63729H99.48L92.1327 13.9754L94.9391 22.6127L87.5918 17.2746L80.2445 22.6127L83.0509 13.9754L75.7036 8.63729H84.7854L87.5918 0Z" fill="#DAD86D"/>
</mask>
<g mask="url(#mask0_30_366)">
<rect x="75.0918" width="10" height="25" fill="#0082CA"/>
<rect x="85.0918" width="15" height="25" fill="white"/>
</g>
<path d="M112.592 0L115.398 8.63729H124.48L117.133 13.9754L119.939 22.6127L112.592 17.2746L105.244 22.6127L108.051 13.9754L100.704 8.63729H109.785L112.592 0Z" fill="white"/>
</svg>
