<svg width="126" height="25" viewBox="0 0 126 25" fill="none" xmlns="http://www.w3.org/2000/svg">
<path d="M13.2109 0L16.0174 8.63729H25.0991L17.7518 13.9754L20.5583 22.6127L13.2109 17.2746L5.86362 22.6127L8.67005 13.9754L1.32273 8.63729H10.4045L13.2109 0Z" fill="white"/>
<path d="M38.2109 0L41.0174 8.63729H50.0991L42.7518 13.9754L45.5583 22.6127L38.2109 17.2746L30.8636 22.6127L33.67 13.9754L26.3227 8.63729H35.4045L38.2109 0Z" fill="white"/>
<path d="M63.2109 0L66.0174 8.63729H75.0991L67.7518 13.9754L70.5583 22.6127L63.2109 17.2746L55.8636 22.6127L58.67 13.9754L51.3227 8.63729H60.4045L63.2109 0Z" fill="white"/>
<path d="M88.2109 0L91.0174 8.63729H100.099L92.7518 13.9754L95.5583 22.6127L88.2109 17.2746L80.8636 22.6127L83.67 13.9754L76.3227 8.63729H85.4045L88.2109 0Z" fill="white"/>
<path d="M113.211 0L116.017 8.63729H125.099L117.752 13.9754L120.558 22.6127L113.211 17.2746L105.864 22.6127L108.67 13.9754L101.323 8.63729H110.405L113.211 0Z" fill="white"/>
</svg>
