<svg width="126" height="25" viewBox="0 0 126 25" fill="none" xmlns="http://www.w3.org/2000/svg">
<path d="M12.6855 0L15.492 8.63729H24.5738L17.2264 13.9754L20.0329 22.6127L12.6855 17.2746L5.33823 22.6127L8.14466 13.9754L0.79734 8.63729H9.87912L12.6855 0Z" fill="#0082CA"/>
<path d="M37.6855 0L40.492 8.63729H49.5738L42.2264 13.9754L45.0329 22.6127L37.6855 17.2746L30.3382 22.6127L33.1447 13.9754L25.7973 8.63729H34.8791L37.6855 0Z" fill="#0082CA"/>
<path d="M62.6855 0L65.492 8.63729H74.5738L67.2264 13.9754L70.0329 22.6127L62.6855 17.2746L55.3382 22.6127L58.1447 13.9754L50.7973 8.63729H59.8791L62.6855 0Z" fill="#0082CA"/>
<path d="M87.6855 0L90.492 8.63729H99.5738L92.2264 13.9754L95.0329 22.6127L87.6855 17.2746L80.3382 22.6127L83.1447 13.9754L75.7973 8.63729H84.8791L87.6855 0Z" fill="#0082CA"/>
<mask id="mask0_30_335" style="mask-type:alpha" maskUnits="userSpaceOnUse" x="100" y="0" width="25" height="23">
<path d="M112.686 0L115.492 8.63729H124.574L117.226 13.9754L120.033 22.6127L112.686 17.2746L105.338 22.6127L108.145 13.9754L100.797 8.63729H109.879L112.686 0Z" fill="#DAD86D"/>
</mask>
<g mask="url(#mask0_30_335)">
<rect x="100.186" width="18" height="25" fill="#0082CA"/>
<rect x="118.186" width="7" height="25" fill="white"/>
</g>
</svg>
