<svg width="126" height="26" viewBox="0 0 126 26" fill="none" xmlns="http://www.w3.org/2000/svg">
<path d="M13.2344 0.5L16.0408 9.13729H25.1226L17.7753 14.4754L20.5817 23.1127L13.2344 17.7746L5.88706 23.1127L8.69348 14.4754L1.34617 9.13729H10.4279L13.2344 0.5Z" fill="#0082CA"/>
<path d="M38.2344 0.5L41.0408 9.13729H50.1226L42.7753 14.4754L45.5817 23.1127L38.2344 17.7746L30.8871 23.1127L33.6935 14.4754L26.3462 9.13729H35.4279L38.2344 0.5Z" fill="#0082CA"/>
<path d="M63.2344 0.5L66.0408 9.13729H75.1226L67.7753 14.4754L70.5817 23.1127L63.2344 17.7746L55.8871 23.1127L58.6935 14.4754L51.3462 9.13729H60.4279L63.2344 0.5Z" fill="#0082CA"/>
<mask id="mask0_30_465" style="mask-type:alpha" maskUnits="userSpaceOnUse" x="76" y="0" width="25" height="24">
<path d="M88.2344 0.5L91.0408 9.13729H100.123L92.7753 14.4754L95.5817 23.1127L88.2344 17.7746L80.8871 23.1127L83.6935 14.4754L76.3462 9.13729H85.4279L88.2344 0.5Z" fill="#DAD86D"/>
</mask>
<g mask="url(#mask0_30_465)">
<rect x="75.3477" y="0.762329" width="19" height="25" fill="#0082CA"/>
<rect x="94.3477" y="0.762329" width="6" height="25" fill="white"/>
</g>
<path d="M113.234 0.5L116.041 9.13729H125.123L117.775 14.4754L120.582 23.1127L113.234 17.7746L105.887 23.1127L108.693 14.4754L101.346 9.13729H110.428L113.234 0.5Z" fill="white"/>
</svg>
