<svg width="24" height="24" viewBox="0 0 24 24" fill="none" xmlns="http://www.w3.org/2000/svg">
<path fill-rule="evenodd" clip-rule="evenodd" d="M22.75 24L23.75 22.5L23.25 20.5L18.25 16L19.25 13.5L20.25 11L19.75 8L18.75 5.5L16.75 3L14.75 1.5L12.75 0.5L10.25 0H8.25L6.75 0.5L4.75 1.5L3.25 2.5L1.75 4L0.75 5.5L0.25 7V9V11L0.75 13L1.25 14.5L2.25 16L3.75 17.5L5.25 18.5L7.25 19.5H9.75H11.75L13.75 19L14.75 18.5L15.75 17.5L20.25 22.5L21.25 24H22.75ZM5.25 5L3.75 6.5L3.25 9V10.5L3.75 12.5L5.25 14L6.75 15.5L8.25 16H10.25H12.25L13.75 15L14.75 14L15.75 12.5L16.25 11V9.5L15.75 8L14.75 6L13.75 5L12.25 4L10.25 3.5H8.25L6.75 4L5.25 5Z" fill="black"/>
</svg>
